<svg xmlns="http://www.w3.org/2000/svg" xmlns:xlink="http://www.w3.org/1999/xlink" width="181" zoomAndPan="magnify" viewBox="0 0 135.75 57.749997" height="77" preserveAspectRatio="xMidYMid meet" version="1.0"><defs><g/><clipPath id="a25d4ed601"><path d="M 0.167969 3.003906 L 47.945312 3.003906 L 47.945312 57.5 L 0.167969 57.5 Z M 0.167969 3.003906 " clip-rule="nonzero"/></clipPath><clipPath id="2f608a11f1"><path d="M 16.101562 4.386719 C 18.542969 3.550781 21.335938 3.003906 24.070312 3.003906 C 26.800781 3.003906 29.433594 3.472656 31.855469 4.308594 C 31.90625 4.332031 31.957031 4.332031 32.011719 4.359375 C 41.113281 7.691406 47.816406 16.488281 47.945312 26.675781 L 47.945312 57.5 L 0.167969 57.5 L 0.167969 26.699219 C 0.296875 16.4375 6.898438 7.640625 16.101562 4.386719 Z M 16.101562 4.386719 " clip-rule="nonzero"/></clipPath><clipPath id="52fc73779b"><path d="M 0.167969 12.992188 L 47.960938 12.992188 L 47.960938 51.078125 L 0.167969 51.078125 Z M 0.167969 12.992188 " clip-rule="nonzero"/></clipPath><clipPath id="02e967b3b4"><path d="M 49 43 L 67 43 L 67 57.5 L 49 57.5 Z M 49 43 " clip-rule="nonzero"/></clipPath><clipPath id="948b189dd0"><path d="M 66 43 L 81 43 L 81 57.5 L 66 57.5 Z M 66 43 " clip-rule="nonzero"/></clipPath><clipPath id="7710640944"><path d="M 80 43 L 93 43 L 93 57.5 L 80 57.5 Z M 80 43 " clip-rule="nonzero"/></clipPath><clipPath id="30de6ff745"><path d="M 93 43 L 106 43 L 106 57.5 L 93 57.5 Z M 93 43 " clip-rule="nonzero"/></clipPath><clipPath id="561e869682"><path d="M 106 43 L 118 43 L 118 57.5 L 106 57.5 Z M 106 43 " clip-rule="nonzero"/></clipPath><clipPath id="0010dd9ac8"><path d="M 117 43 L 130 43 L 130 57.5 L 117 57.5 Z M 117 43 " clip-rule="nonzero"/></clipPath></defs><g clip-path="url(#a25d4ed601)"><g clip-path="url(#2f608a11f1)"><path fill="#315f4c" d="M 0.167969 3.003906 L 47.945312 3.003906 L 47.945312 57.5 L 0.167969 57.5 Z M 0.167969 3.003906 " fill-opacity="1" fill-rule="nonzero"/></g></g><path fill="#fdfaec" d="M 36.824219 50.699219 C 30.527344 50.644531 24.230469 50.585938 17.929688 50.527344 C 17.929688 47.484375 17.929688 44.441406 17.929688 41.402344 C 21.046875 39.476562 24.160156 37.554688 27.277344 35.632812 C 30.460938 37.554688 33.644531 39.476562 36.824219 41.402344 C 36.824219 44.5 36.824219 47.601562 36.824219 50.699219 Z M 27.277344 29.160156 C 25.265625 27.78125 23.253906 26.402344 21.242188 25.023438 C 19.230469 26.402344 17.21875 27.78125 15.207031 29.160156 C 15.207031 31.300781 15.207031 33.441406 15.207031 35.582031 C 19.230469 35.601562 23.253906 35.617188 27.277344 35.632812 C 27.277344 33.476562 27.277344 31.316406 27.277344 29.160156 Z M 27.277344 29.160156 " fill-opacity="1" fill-rule="nonzero"/><path fill="#9d4f3c" d="M 35.746094 25.023438 C 30.910156 25.023438 26.078125 25.023438 21.242188 25.023438 C 21.222656 22.648438 21.203125 20.277344 21.183594 17.90625 C 23.59375 16.46875 26.007812 15.035156 28.417969 13.597656 C 30.808594 15.042969 33.195312 16.484375 35.585938 17.925781 C 35.636719 20.292969 35.691406 22.65625 35.746094 25.023438 Z M 35.746094 25.023438 " fill-opacity="1" fill-rule="nonzero"/><g clip-path="url(#52fc73779b)"><path fill="#333333" d="M 47.484375 50.234375 L 42.257812 50.234375 L 42.257812 29.164062 C 42.257812 29.164062 42.257812 29.164062 42.257812 29.160156 C 42.257812 29.152344 42.257812 29.148438 42.257812 29.140625 C 42.253906 29.121094 42.253906 29.101562 42.25 29.082031 C 42.25 29.070312 42.242188 29.058594 42.238281 29.046875 C 42.238281 29.035156 42.234375 29.019531 42.226562 29.007812 C 42.222656 28.996094 42.214844 28.984375 42.210938 28.972656 C 42.203125 28.960938 42.199219 28.949219 42.191406 28.941406 C 42.183594 28.929688 42.175781 28.917969 42.167969 28.910156 C 42.160156 28.898438 42.152344 28.890625 42.144531 28.878906 C 42.128906 28.867188 42.117188 28.855469 42.101562 28.84375 C 42.09375 28.839844 42.089844 28.835938 42.085938 28.832031 L 42.082031 28.828125 L 36.144531 24.761719 L 36.144531 17.90625 C 36.144531 17.765625 36.070312 17.636719 35.953125 17.566406 L 28.691406 13.089844 C 28.621094 13.03125 28.53125 12.992188 28.433594 12.992188 L 17.214844 12.992188 C 17.09375 12.992188 16.988281 13.046875 16.917969 13.128906 L 9.753906 17.542969 C 9.605469 17.632812 9.539062 17.808594 9.574219 17.96875 C 9.574219 17.980469 9.574219 17.988281 9.574219 17.996094 L 9.574219 38.28125 C 9.574219 38.339844 9.585938 38.398438 9.613281 38.449219 L 5.296875 41.058594 C 5.296875 41.0625 5.292969 41.0625 5.289062 41.066406 C 5.285156 41.070312 5.277344 41.074219 5.273438 41.074219 C 5.257812 41.085938 5.242188 41.101562 5.230469 41.113281 C 5.226562 41.117188 5.222656 41.117188 5.222656 41.121094 C 5.207031 41.136719 5.191406 41.152344 5.179688 41.171875 C 5.175781 41.175781 5.171875 41.179688 5.167969 41.1875 C 5.160156 41.203125 5.148438 41.21875 5.140625 41.238281 C 5.140625 41.242188 5.136719 41.246094 5.136719 41.246094 C 5.128906 41.269531 5.121094 41.289062 5.117188 41.3125 C 5.117188 41.316406 5.113281 41.324219 5.113281 41.328125 C 5.109375 41.351562 5.105469 41.375 5.105469 41.402344 L 5.105469 50.234375 L 0.625 50.234375 C 0.402344 50.234375 0.226562 50.414062 0.226562 50.632812 C 0.226562 50.855469 0.402344 51.03125 0.625 51.03125 L 47.484375 51.03125 C 47.707031 51.03125 47.886719 50.855469 47.886719 50.632812 C 47.886719 50.414062 47.707031 50.234375 47.484375 50.234375 Z M 29 50.234375 L 25.757812 50.234375 L 25.757812 45.8125 C 25.757812 44.917969 26.484375 44.191406 27.378906 44.191406 C 28.273438 44.191406 29 44.917969 29 45.8125 Z M 27.378906 43.390625 C 26.042969 43.390625 24.957031 44.476562 24.957031 45.8125 L 24.957031 50.234375 L 18.328125 50.234375 L 18.328125 41.625 L 27.378906 36.148438 L 36.425781 41.625 L 36.425781 50.234375 L 29.800781 50.234375 L 29.800781 45.8125 C 29.800781 44.476562 28.714844 43.390625 27.378906 43.390625 Z M 11.066406 41 L 19.195312 36.078125 L 21.867188 36.078125 L 13.738281 41 Z M 15.066406 36.078125 L 17.65625 36.078125 L 9.527344 41 L 6.933594 41 Z M 17.363281 13.789062 L 19.371094 13.789062 L 13.195312 17.597656 L 11.183594 17.597656 Z M 20.890625 13.792969 C 20.890625 13.792969 20.890625 13.789062 20.890625 13.789062 L 23.261719 13.789062 L 17.082031 17.597656 L 14.714844 17.597656 Z M 24.695312 13.84375 C 24.722656 13.828125 24.742188 13.808594 24.761719 13.789062 L 27.097656 13.789062 L 20.972656 17.566406 C 20.957031 17.574219 20.941406 17.585938 20.929688 17.597656 L 18.601562 17.597656 Z M 35.695312 25.421875 L 40.570312 28.761719 L 37.441406 28.761719 C 37.429688 28.753906 37.421875 28.746094 37.414062 28.738281 L 32.171875 25.421875 Z M 32.839844 28.761719 C 32.835938 28.757812 32.832031 28.753906 32.832031 28.753906 L 27.695312 25.421875 L 30.683594 25.421875 C 30.695312 25.425781 30.703125 25.4375 30.710938 25.441406 L 35.953125 28.761719 Z M 30.226562 24.621094 L 26.90625 24.621094 L 26.90625 22.125 C 26.90625 21.195312 27.652344 20.4375 28.566406 20.4375 C 29.484375 20.4375 30.226562 21.195312 30.226562 22.125 Z M 26.230469 25.421875 L 31.375 28.761719 L 27.402344 28.761719 L 22.53125 25.421875 Z M 21.242188 25.503906 L 26.878906 29.371094 L 26.878906 35.28125 L 23.382812 35.28125 L 23.382812 33.109375 C 23.382812 31.84375 22.351562 30.816406 21.089844 30.816406 C 19.828125 30.816406 18.800781 31.84375 18.800781 33.109375 L 18.800781 35.28125 L 15.605469 35.28125 L 15.605469 29.371094 Z M 22.582031 35.28125 L 19.597656 35.28125 L 19.597656 33.109375 C 19.597656 32.285156 20.269531 31.617188 21.089844 31.617188 C 21.914062 31.617188 22.582031 32.285156 22.582031 33.109375 Z M 23.410156 36.078125 L 25.949219 36.078125 L 17.820312 41 L 15.28125 41 Z M 37.03125 41.058594 L 27.675781 35.394531 L 27.675781 29.558594 L 41.460938 29.558594 L 41.460938 50.234375 L 37.226562 50.234375 L 37.226562 41.402344 C 37.226562 41.261719 37.152344 41.132812 37.03125 41.058594 Z M 35.34375 24.621094 L 31.027344 24.621094 L 31.027344 22.125 C 31.027344 20.753906 29.921875 19.640625 28.566406 19.640625 C 27.210938 19.640625 26.109375 20.753906 26.109375 22.125 L 26.109375 24.621094 L 21.582031 24.621094 L 21.582031 18.128906 L 28.464844 13.886719 L 35.34375 18.128906 Z M 10.371094 18.394531 L 20.785156 18.394531 L 20.785156 24.851562 L 14.980469 28.832031 C 14.871094 28.90625 14.808594 29.027344 14.808594 29.160156 L 14.808594 35.308594 C 14.785156 35.316406 14.765625 35.328125 14.746094 35.339844 L 10.371094 37.988281 Z M 5.902344 41.800781 L 13.632812 41.800781 C 13.683594 41.820312 13.738281 41.832031 13.792969 41.832031 C 13.847656 41.832031 13.902344 41.824219 13.953125 41.800781 L 17.53125 41.800781 L 17.53125 50.234375 L 5.902344 50.234375 Z M 5.902344 41.800781 " fill-opacity="1" fill-rule="nonzero"/></g><g fill="#333333" fill-opacity="1"><g transform="translate(49.698385, 42.169941)"><g><path d="M 0.828125 -13.511719 L 0.828125 0 L 4.113281 0 L 4.113281 -5.519531 L 10.117188 -5.519531 L 10.117188 -7.992188 L 4.113281 -7.992188 L 4.113281 -10.867188 L 11.542969 -10.867188 L 11.542969 -13.511719 Z M 0.828125 -13.511719 "/></g></g></g><g fill="#333333" fill-opacity="1"><g transform="translate(60.660205, 42.169941)"><g><path d="M 4.574219 -13.511719 L 0.191406 0 L 3.628906 0 L 4.535156 -2.875 L 9.265625 -2.875 L 10.171875 0 L 13.628906 0 L 9.226562 -13.511719 Z M 8.4375 -5.519531 L 5.367188 -5.519531 L 6.890625 -10.425781 Z M 8.4375 -5.519531 "/></g></g></g><g fill="#333333" fill-opacity="1"><g transform="translate(73.551956, 42.169941)"><g><path d="M 0.8125 -13.511719 L 0.8125 0 L 4.09375 0 L 4.09375 -13.511719 Z M 0.8125 -13.511719 "/></g></g></g><g fill="#333333" fill-opacity="1"><g transform="translate(77.566014, 42.169941)"><g><path d="M 4.054688 -10.867188 L 7.007812 -10.867188 C 8.089844 -10.867188 8.726562 -10.308594 8.726562 -9.246094 C 8.726562 -8.183594 8.089844 -7.527344 7.007812 -7.527344 L 4.054688 -7.527344 Z M 4.054688 -4.921875 L 7.507812 -4.921875 C 8.164062 -4.921875 8.726562 -4.363281 8.726562 -3.707031 L 8.726562 -0.867188 C 8.726562 -0.5 8.898438 -0.078125 9.207031 0 L 12.507812 0 C 12.140625 -0.15625 12.007812 -0.484375 12.007812 -0.867188 L 12.007812 -3.726562 C 12.007812 -4.824219 11.464844 -5.792969 10.597656 -6.332031 C 11.503906 -6.96875 12.007812 -8.050781 12.007812 -9.574219 C 12.007812 -12.238281 10.460938 -13.511719 7.875 -13.511719 L 0.773438 -13.511719 L 0.773438 0 L 4.054688 0 Z M 4.054688 -4.921875 "/></g></g></g><g fill="#333333" fill-opacity="1"><g transform="translate(89.608592, 42.169941)"><g><path d="M 0.828125 -13.511719 L 0.828125 0 L 11.542969 0 L 11.542969 -2.644531 L 4.113281 -2.644531 L 4.113281 -5.519531 L 10.117188 -5.519531 L 10.117188 -7.992188 L 4.113281 -7.992188 L 4.113281 -10.867188 L 11.542969 -10.867188 L 11.542969 -13.511719 Z M 0.828125 -13.511719 "/></g></g></g><g fill="#333333" fill-opacity="1"><g transform="translate(100.686205, 42.169941)"><g><path d="M 4.054688 -10.867188 L 7.007812 -10.867188 C 8.089844 -10.867188 8.726562 -10.308594 8.726562 -9.246094 C 8.726562 -8.183594 8.089844 -7.527344 7.007812 -7.527344 L 4.054688 -7.527344 Z M 4.054688 -4.921875 L 7.507812 -4.921875 C 8.164062 -4.921875 8.726562 -4.363281 8.726562 -3.707031 L 8.726562 -0.867188 C 8.726562 -0.5 8.898438 -0.078125 9.207031 0 L 12.507812 0 C 12.140625 -0.15625 12.007812 -0.484375 12.007812 -0.867188 L 12.007812 -3.726562 C 12.007812 -4.824219 11.464844 -5.792969 10.597656 -6.332031 C 11.503906 -6.96875 12.007812 -8.050781 12.007812 -9.574219 C 12.007812 -12.238281 10.460938 -13.511719 7.875 -13.511719 L 0.773438 -13.511719 L 0.773438 0 L 4.054688 0 Z M 4.054688 -4.921875 "/></g></g></g><g clip-path="url(#02e967b3b4)"><g fill="#333333" fill-opacity="1"><g transform="translate(49.698385, 57.105285)"><g><path d="M 0.191406 -13.511719 L 3.4375 0 L 6.71875 0 L 8.707031 -8.589844 L 10.695312 0 L 13.996094 0 L 17.21875 -13.511719 L 13.9375 -13.511719 L 12.199219 -4.941406 L 10.386719 -13.511719 L 7.046875 -13.511719 L 5.230469 -4.941406 L 3.476562 -13.511719 Z M 0.191406 -13.511719 "/></g></g></g></g><g clip-path="url(#948b189dd0)"><g fill="#333333" fill-opacity="1"><g transform="translate(66.218411, 57.105285)"><g><path d="M 7.335938 -13.820312 C 2.78125 -13.820312 0.617188 -11.136719 0.617188 -6.757812 C 0.617188 -2.375 2.78125 0.308594 7.335938 0.308594 C 11.890625 0.308594 14.035156 -2.375 14.035156 -6.757812 C 14.035156 -11.136719 11.890625 -13.820312 7.335938 -13.820312 Z M 7.335938 -11.175781 C 9.75 -11.175781 10.753906 -9.496094 10.753906 -6.757812 C 10.753906 -4.015625 9.75 -2.335938 7.335938 -2.335938 C 4.921875 -2.335938 3.898438 -4.015625 3.898438 -6.757812 C 3.898438 -9.496094 4.921875 -11.175781 7.335938 -11.175781 Z M 7.335938 -11.175781 "/></g></g></g></g><g clip-path="url(#7710640944)"><g fill="#333333" fill-opacity="1"><g transform="translate(79.959334, 57.105285)"><g><path d="M 0.8125 -13.511719 L 0.8125 0 L 4.09375 0 L 4.09375 -5.445312 L 9.730469 -5.445312 L 9.730469 0 L 13.011719 0 L 13.011719 -13.511719 L 9.730469 -13.511719 L 9.730469 -8.070312 L 4.09375 -8.070312 L 4.09375 -13.511719 Z M 0.8125 -13.511719 "/></g></g></g></g><g clip-path="url(#30de6ff745)"><g fill="#333333" fill-opacity="1"><g transform="translate(92.851086, 57.105285)"><g><path d="M 0.828125 -13.511719 L 0.828125 0 L 4.09375 0 L 4.09375 -8.183594 L 10.097656 0 L 13.011719 0 L 13.011719 -13.511719 L 9.730469 -13.511719 L 9.730469 -5.347656 L 3.746094 -13.511719 Z M 0.828125 -13.511719 "/></g></g></g></g><g clip-path="url(#561e869682)"><g fill="#333333" fill-opacity="1"><g transform="translate(105.742835, 57.105285)"><g><path d="M 0.828125 -13.511719 L 0.828125 0 L 11.542969 0 L 11.542969 -2.644531 L 4.113281 -2.644531 L 4.113281 -5.519531 L 10.117188 -5.519531 L 10.117188 -7.992188 L 4.113281 -7.992188 L 4.113281 -10.867188 L 11.542969 -10.867188 L 11.542969 -13.511719 Z M 0.828125 -13.511719 "/></g></g></g></g><g clip-path="url(#0010dd9ac8)"><g fill="#333333" fill-opacity="1"><g transform="translate(116.820448, 57.105285)"><g><path d="M 0.828125 -13.511719 L 0.828125 0 L 4.09375 0 L 4.09375 -8.183594 L 10.097656 0 L 13.011719 0 L 13.011719 -13.511719 L 9.730469 -13.511719 L 9.730469 -5.347656 L 3.746094 -13.511719 Z M 0.828125 -13.511719 "/></g></g></g></g></svg>